# xmcd CD database file
#
# Track frame offsets:
#	150
#	18712
#	38467
#	58500
#	83187
#	98612
#	125237
#	146160
#	164790
#	186095
#	205030
#	224012
#	236382
#	272525
#
# Disc length: 3803 seconds
#
# Revision: 1
# Processed by: cddbd v1.5.2PL0 Copyright (c) Steve Scherf et al.
# Submitted via: CDex 1.70beta2
#
DISCID=cb0ed90e
DTITLE=喜多郎 - 喜多郎コレクション
DYEAR=1990
DGENRE=New Age
TTITLE0=絲綢之路
TTITLE1=飛天
TTITLE2=シルクロード幻想
TTITLE3=永遠の路
TTITLE4=静けさの中で (はるかなるタクラマカン砂漠)
TTITLE5=流(る)
TTITLE6=陽(ひ)
TTITLE7=風神
TTITLE8=敦煌からの想い
TTITLE9=飛翔
TTITLE10=TAO(道)
TTITLE11=NEW WAVE 新たなる旅路
TTITLE12=COSMIC ENERGY 宇宙エネルギー
TTITLE13=SHIMMERING HORIZON 地平線
EXTD=YEAR: 1990
EXTT0=
EXTT1=
EXTT2=
EXTT3=
EXTT4=
EXTT5=
EXTT6=
EXTT7=
EXTT8=
EXTT9=
EXTT10=
EXTT11=
EXTT12=
EXTT13=
PLAYORDER=
